<?xml version="1.0" encoding="utf-8" ?><svg xmlns="http://www.w3.org/2000/svg" xmlns:xlink="http://www.w3.org/1999/xlink" width="1024" height="1024" viewBox="0 0 1024 1024"><defs><linearGradient id="gradient_0" gradientUnits="userSpaceOnUse" x1="1036.7997" y1="1848.3878" x2="1013.6793" y2="194.33882"><stop offset="0" stop-color="#4375F4"/><stop offset="1" stop-color="#DEB4F1"/></linearGradient></defs><path fill="url(#gradient_0)" transform="scale(0.5 0.5)" d="M1855.65 645.003C1889.54 727.505 1902.25 827.48 1902.03 915.945C1900.72 1115.3 1835.06 1308.9 1714.82 1467.91C1587.52 1638.99 1407.08 1763.01 1201.75 1820.57C943.027 1891.89 648.374 1849.8 430.037 1690.08C284.688 1582.65 182.685 1430.11 156.365 1249.99C136.834 1116.33 159.294 1003.12 227.925 887.179C299.94 765.519 415.347 691.626 517.969 599.235C573.33 549.394 620.882 491.138 671.32 436.472C921.834 150.71 1327.62 105.907 1635.78 337.686C1640.82 341.701 1646.17 345.829 1651.08 349.955C1662.95 360.507 1675.36 371.441 1686.55 382.634L1704.24 400.545C1755.2 454.029 1797.36 515.252 1829.16 581.938C1833.97 592.197 1841.04 607.101 1844.72 617.631C1848.95 627.248 1852.31 634.947 1855.65 645.003Z"/><path fill="#D0ADF2" transform="scale(0.5 0.5)" d="M1686.55 382.634L1704.24 400.545L1701.87 402.917C1699.38 402.725 1700.62 402.621 1698.16 403.247C1698.73 404.531 1698.97 405.244 1699.43 406.562C1697.15 408.351 1698.39 407.807 1695.52 407.886L1694.1 404.765L1692.96 404.641L1690.95 407.061L1690.02 406.579C1690.24 403.515 1690.47 403.012 1689.61 400.021L1687.52 399.22C1687.89 402.075 1688.1 402.185 1687.44 404.927C1685.12 406.006 1686.28 405.996 1683.95 405.427C1684.22 404.598 1685.37 400.505 1685.6 400.113C1688.92 394.305 1684.61 388.081 1686.55 382.634Z"/><path fill="#D0ADF2" transform="scale(0.5 0.5)" d="M1844.72 617.631C1848.95 627.248 1852.31 634.947 1855.65 645.003C1854.09 645.803 1853.3 646.144 1851.71 646.81L1850.43 646.139C1850.49 642.905 1850.79 642.206 1849.41 639.287L1845.55 640.137C1843.77 635.877 1845.36 627.439 1842.92 620.543L1844.72 617.631Z"/><path fill="#D0ADF2" transform="scale(0.5 0.5)" d="M1635.78 337.686C1640.82 341.701 1646.17 345.829 1651.08 349.955C1639.55 351.104 1634.37 352.521 1635.78 337.686Z"/><path fill="#D0ADF2" transform="scale(0.5 0.5)" d="M1128.88 610C1127.69 612.18 1127.38 612.344 1125.77 614.295L1124.04 614.292L1121.82 610.142L1120.55 611.024C1119.71 615.794 1120.15 616.432 1115.56 618.049C1112.49 616.763 1112.05 615.314 1110.43 612.61C1108.5 616.47 1101.82 616.232 1098.43 614.728L1101.7 611.45C1099.67 607.415 1096.29 610.058 1093.47 605.281C1095 603.182 1095.12 603.176 1095.99 600.765L1094.76 598.534C1088.54 604.007 1094.39 600.624 1090.07 604.749L1087.54 603.445C1088.07 606.563 1088.27 605.411 1087.27 608.181C1080.58 608.524 1086.29 605.373 1079.51 603.382C1079.35 604.759 1079.15 605.502 1078.84 606.849L1076.04 607.391C1070.97 613.459 1068.16 612.569 1060.91 610.837L1059.65 610.528C1061.32 615.527 1064.31 614.9 1065.14 622.977C1063.94 626.131 1064.96 624.97 1061.94 626.55L1061.12 625.966L1061.41 622.593C1057.97 619.671 1058.77 623.39 1054.56 621.582L1055.04 620.096L1060.65 617.797L1061.02 616.294C1058.69 614.038 1060.03 614.75 1056.86 614.073L1054.79 615.78C1053.04 619.802 1052.98 619.622 1052.83 623.934L1053.78 623.734C1054.15 626.029 1054.2 624.885 1053.1 627.144L1050.92 627.581L1049.35 624.749L1048.17 625.766L1047.38 625.076C1048.09 622.296 1049.76 616.49 1048.62 614.048C1046.75 610.076 1049.7 613.798 1050.22 609.545C1038.63 608.808 1040.54 622.313 1033.93 625.412C1030.5 624.882 1030.62 625.098 1027.99 622.911C1027.7 619.747 1028.29 620.004 1030.07 616.656C1029.08 612 1029.75 617.473 1023.53 612.374C1019.58 615.609 1022.97 622.786 1019.64 627.59L1018.23 627.568C1014.81 624.651 1015.68 626.391 1014.92 622.531L1013.02 623.343C1010.58 621.576 1011.52 621.904 1008.77 621.135C1005.82 626.379 1008.46 629.465 1005.37 632.996C1002.81 630.579 1003.62 631.346 1003.04 626.927C998.944 622.927 1002.74 627.157 996.941 626.155C996.39 624.092 996.672 624.585 997.233 622.165C999.258 619.933 1000.81 620.036 1003.86 619.473L1005.05 619.262C1006.6 614.946 1003.67 619.018 1003.4 613.796L1006.37 613.819C1007.75 615.781 1007.74 615.598 1010 616.532C1014.3 615.825 1012.75 616.794 1015.53 614.474C1010.26 603.645 992.659 614.514 984.761 606.904C983.598 603.002 983.174 596.839 986.42 594.11C988.411 590.434 987.084 583.913 983.135 581.756C983.201 583.334 983.279 587.815 982.817 589.405C979.831 599.68 985.476 598.699 978.542 608.637L975.488 608.106C974.881 610.9 977 616.565 977.471 621.007L976.411 622.015C971.569 623.439 961.869 625.948 959.114 620.904C959.173 615.684 961.182 607.465 966.277 605.02C967.369 606.709 966.895 605.85 967.715 607.589L967.249 606.954L967.611 607.578C970.772 606.05 970.65 605.719 972.311 602.352L971.582 600.774C967.943 600.473 967.683 600.627 964.219 599.156C962.384 595.541 963.382 593.568 963.848 588.972C962.882 587.028 961.656 583.149 960.673 581.848L959.084 583.157L959.116 581.552C961.333 578.633 963.155 576.865 963.801 573.291L960.714 571.485L960.486 569.711C966.502 563.436 968.53 557.397 963.907 549.136L962.028 549.471C960.014 552.704 960.599 550.918 960.797 555.167C962.005 554.132 961.493 554.295 961.905 551.968L962.877 552.036L963.8 556.138C961.714 559.731 956.735 554.507 946.897 560.036L946.982 561.516C950.394 563.773 954.602 563.28 959 563.934L959.091 564.731L955.931 567.088C953.032 567.089 950.441 566.656 948.194 568.236L948.225 571.366C946.208 573.759 942.862 574.097 939.629 574.944L937.411 573.324C929.008 588.429 939.087 584.081 943.077 592.332C942.539 592.844 934.932 594.2 934.444 594.205C932.114 591.357 932.856 592.14 932.568 587.664L929.537 585.538L930.026 583.952L931.383 583.291C929.604 582.81 928.362 582.503 926.531 582.147L924.962 581.854L924.763 580.047C926.818 577.463 927.525 577.345 930.466 575.97L931.376 575.555C933.434 566.433 930.355 560.811 933.534 551.874C929.545 551.175 929.015 554.74 924.057 553.332C919.749 546.137 924.265 542.107 924.442 540.13C917.35 541.949 919.957 545.99 915.464 549.864C913.863 547.813 914.133 547.198 913.81 544.509C915.719 541.247 915.991 540.845 919.127 538.761C916.967 534.423 917.902 534.421 917.031 530.123C914.671 528.843 909.965 531.359 905.668 532.352L904.279 531.26C904.934 524.859 908.542 523.873 913.426 520.275C917.235 517.469 915.989 513.249 918.451 508.792C919.328 510.409 919.321 510.762 919.626 512.556L921.756 511.738C924.18 507.555 924.677 506.149 921.677 502.603C923.952 500.914 924.06 501.071 925.382 498.631C918.929 494.044 903.819 502.652 900.706 489.979C902.263 487.681 901.344 488.72 904.516 487.482C907.021 484.907 906.844 483.873 907.266 480.509L908.303 479.854C908.302 484.021 907.513 482.813 909.337 485.407C911.376 483.116 912.285 481.669 913.945 479.157C916.812 479.205 918.771 481.23 921.216 483.037L920.744 488.064L921.692 487.469C923.487 478.401 914.815 478.015 928.68 470.59L929.873 469.964C930.358 468.104 930.249 467.923 930.343 465.976C928.361 467.684 929.188 467.241 926.619 467.999C923.625 461.018 917.933 449.594 927.067 445.207L928.111 446.786C927.727 450.828 927.404 451.154 924.772 454.141C926.573 455.901 927.097 455.442 930.114 455.982C932.925 458.269 931.736 456.827 932.809 461.22C935.696 457.305 932.053 446.579 936.593 440.036C942.175 438.441 947.51 434.351 951.635 430.372C952.263 427.269 952.332 426.734 953.557 423.685L955.083 423.965C957.886 429.339 951.213 440.079 948.661 445.235C945.24 446.334 945.014 446.432 941.906 448.233L941.773 449.794C943.651 453.16 943.788 453.947 947.263 455.727L949.271 455.003C951.508 450.271 955.374 445.265 953.212 440.584L955.074 439.741C957.843 440.359 959.119 440.885 961.914 440.284C965.838 434.152 960.94 434.249 957.406 428.941C957.481 426.857 961.615 409.583 962.443 406.544L964.404 407.433L965.611 405.876C968.481 405.315 966.194 408.457 971.011 410.042C971.741 406.317 970.77 407.47 973.024 405.539C976.223 406.462 976.523 406.535 979.834 406.786L981.161 405.599C979.653 399.63 978.183 399.217 982.469 394.681L983.473 395.286C983.715 399.98 983.623 400.662 985.139 405L986.581 405.428C990.025 400.013 985.093 401.751 989.14 397.008C994.99 395.394 997.115 396.059 998.881 390.246C996.471 386.119 992.614 389.456 987.961 384.156C987.768 380.861 987.231 382.131 988.644 379.782L993.733 383.59L995.423 382.78L996.884 383.099L997.398 381.522L1000 381.705C1000.12 384.566 999.762 385.934 1001.04 388.218C1004.72 383.728 1005.41 381.614 1011.31 381.638L1011.05 382.914L1008.51 383.561C1006.36 386.454 1007.09 384.734 1007.54 389.409C1004.96 392.855 1006.52 392.141 1003.25 392.739C1002.08 395.309 1002.28 396.159 1001.98 399.038C1004.4 398.85 1008.18 396.066 1010.55 394.606C1012.43 396.258 1012.28 396.292 1014.65 397.017L1015.98 395.664C1009.69 388.803 1014.79 388.861 1016.97 378.95C1017.62 375.961 1013.79 376.823 1012.23 372.48C1013.83 366.996 1017.25 363.314 1023.13 362.979L1024.83 364.604C1025.64 368.162 1025.71 368.527 1024.53 371.97C1027.7 373.178 1024.02 371.421 1030.18 370.335C1033.63 364.532 1025.96 353.81 1034.53 351.055C1035.57 356.65 1033.45 356.681 1035.85 360.41L1037.22 360.197C1036.46 357.827 1036.55 358.715 1036.75 356.171C1043.92 348.297 1038.27 351.211 1036.82 347.247L1038.62 346.28C1041.56 346.886 1042.74 348.844 1044.9 351.161L1045.91 352.26L1047.94 352.232L1049.36 356.47C1063.8 342.844 1039.2 342.735 1041.73 333.507C1046.99 328.855 1056.72 332.153 1062.65 329.387C1059.85 322.396 1065.01 323.797 1064.54 318.76C1062.99 318.342 1061.99 318.101 1060.38 317.801L1058.99 317.551L1059.03 316.371C1067.26 313.763 1079.45 324.463 1084.81 321.68L1084.3 318.051C1087.23 316.348 1090.13 314.593 1092.99 312.785L1096.2 313.711C1097.28 312.996 1098.28 312.39 1099.45 311.816C1102.04 306.22 1102.36 307.745 1101.14 302.332L1100.81 300.936L1101.95 299.936C1104.09 302.215 1106.96 304.566 1109.86 305.746C1110.11 303.485 1109.93 304.132 1110.73 301.977L1112.88 303.651C1119.06 300.272 1126.08 301.317 1130.37 296.21C1129.73 294.336 1129.7 294.227 1129.3 292.371C1130.97 290.949 1129.98 291.54 1132.38 290.77L1131.87 288.279C1128.67 287.574 1125.53 287.732 1123.03 289.821C1123.41 292.287 1123.47 292.486 1123.3 294.959L1122.16 295.431C1117.71 291.617 1115.05 285.51 1116.57 279.701C1119.25 277.06 1117.73 277.703 1121.01 277.168C1122.6 278.717 1123.86 280.059 1125.36 281.701L1127.18 281.74C1128.35 280 1128.55 279.486 1129.31 277.589L1130.02 275.761L1131.14 276.322C1130.9 278.931 1130.62 280.914 1130.22 283.479L1131.59 284.989C1133.45 281.329 1134.34 277.935 1138.77 278.335C1141.41 282.311 1135.18 282.154 1134.93 290.068L1136.14 290.948L1137.81 289.438L1139.3 289.665C1140.39 291.531 1140.78 292.243 1142.07 293.98L1143.04 292.967L1141.3 289.397L1142.49 288.496L1145.58 289.489L1145.84 288.235C1143.98 286.282 1141.49 283.212 1142.91 280.482C1144.7 279.382 1151.82 277.079 1153.81 277.295C1152.24 280.838 1153.55 286.794 1156.29 289.028C1157.28 285.332 1156.02 282.185 1156.15 277.559C1157.93 278.082 1159.08 278.389 1160.93 278.775L1162.49 279.089C1163.73 281.886 1164.25 284.122 1165.09 287.035L1164.46 288.019C1161.5 287.691 1162.22 287.548 1159.4 288.021C1158.71 290.06 1158.76 290.351 1159.38 292.409L1159.06 292.41L1161.19 290.85C1162.91 292.169 1163.18 292.775 1164.09 294.732C1169.5 295.072 1163.79 293.977 1167.99 292.164L1169.28 293.511L1168.06 295.877L1169.32 297.649L1170.35 297.145C1169.83 294.346 1169.46 293.635 1170.06 290.852C1171.87 290.842 1173.07 290.958 1174.87 291.099L1175.8 289.525L1174.89 288.084L1172.59 288.696L1171.86 287.9C1173.33 285.187 1173.14 286.279 1173.34 283.412C1171.78 282.782 1170.45 282.099 1168.95 281.367L1169.43 280.089L1172.42 281.783C1173.73 280.434 1174.89 279.04 1176 277.519L1178.02 277.22C1180.93 278.974 1181.25 278.996 1184.64 279.03C1183.21 282.587 1183.22 280.921 1183.77 284.151L1186.43 285.175C1191 283.911 1193.73 278.048 1196.34 273.844L1197.78 273.524L1199.66 276.717C1200.94 274.98 1200.15 275.505 1201.8 274.878C1202.72 277.644 1203.57 280.094 1204.62 282.814L1206.92 281.714C1209.02 278.585 1208.85 278.631 1209.33 275.079L1207.18 274.792L1206.52 273.426L1207.27 271.455C1210.39 269.167 1211.6 269.255 1215.28 268.79C1218.14 265.962 1217.4 267.632 1217.56 263.602C1214.78 262.929 1210.15 264.753 1206.76 262.531C1206.8 259.271 1206.55 260.88 1208.6 257.721L1209.09 259.372C1211.67 257.838 1211.46 257.801 1214.43 257.875L1217.51 261.615C1221.1 259.445 1220.68 258.936 1224.26 258.876C1226.57 262.152 1225.63 262.161 1224.96 267.242L1226.34 267.75L1229.27 264.436L1229.22 264.715C1233.08 261.078 1234.24 261.325 1238.53 258.691C1239.6 259.396 1240.68 260.09 1241.77 260.771C1243.68 258.401 1243.61 258.608 1243.88 255.58C1240.45 254.871 1238.56 256.406 1235.29 254.222L1234.91 251.996L1235.99 250.881L1238.73 251.765L1240.1 249.948C1238.86 247.87 1238.63 247.702 1236.91 246.04C1238.56 243.969 1242.53 243.681 1245.71 242.931C1246.94 239.255 1246.95 240.977 1246.31 237.602L1242.65 237.021C1243.14 232.423 1254.08 216.663 1260.39 224.944C1260.5 228.187 1260.81 228.738 1259.35 231.641C1255.87 231.275 1256.19 229.322 1251.94 226.562C1251.25 229.664 1249.93 231.018 1248.52 233.836C1250.26 236.696 1250.39 237.7 1251.49 240.855L1253.15 241.5C1254.54 238.691 1254.8 237.492 1257.51 235.915C1262.81 236.409 1261.49 239.165 1265.87 239.807L1267.14 238.088L1265.15 235.099L1266.22 233.434C1270.48 231.906 1271.71 231.446 1275.28 228.732C1278.02 229.979 1279.18 230.712 1281.72 232.26L1283.74 231.688C1283.21 228.886 1283.07 229.915 1283.75 227.348L1286.45 227.051L1287.18 228.186C1287.29 231.35 1287.6 232.466 1286.14 235.298C1283.1 233.257 1284.57 233.385 1281.7 233.778C1280.95 236.021 1280.82 236.731 1279.62 238.743L1277.5 236.929L1277.52 234.938L1273.99 235.051C1270.55 237.154 1271.71 235.733 1270.26 239.377C1270.61 242.846 1270.39 242.908 1272.71 245.675L1274.64 243.599L1274.31 241.706L1275.43 240.492L1278.05 240.458L1279.86 242.249C1279.76 247.755 1279.79 242.004 1276.29 245.542L1276.53 247.015L1279.99 247.581C1279.26 250.84 1280.05 249.519 1277.53 251.687L1276.55 249.682C1274.89 250.786 1275.81 250.358 1273.44 250.338L1272.72 248.364L1271.59 248.126C1270.48 250.095 1270.38 250.175 1269.01 251.952L1266.65 252.021C1264.31 248.892 1266.74 247.834 1264.74 243.239L1263.35 243.863C1262.2 246.264 1262.01 247.298 1259.92 248.901C1256.52 248.062 1256.11 247.756 1252.56 248.052C1251.94 250.054 1251.87 250.682 1251.74 252.715L1250.42 252.958L1248.71 248.225C1245.32 248.21 1245.31 248.163 1242.05 249.023L1242.13 250.561L1244.08 252.07L1247.49 250.967L1248.46 251.615C1246.6 253.635 1246.47 253.378 1245.34 255.727L1247.68 257.641C1249.61 257.875 1251.2 257.546 1253.11 257.182C1254.29 259.373 1254.65 259.653 1255.27 262.068C1256.64 262.461 1257.93 262.768 1259.31 263.106C1259.7 265.604 1259.63 265.688 1260.68 267.951L1262.33 268.204C1262.72 265.752 1269.85 256.818 1271.74 253.863L1272.87 253.821L1273.51 257.924C1276.01 258.947 1276.56 259.186 1278.81 256.962C1281.07 260.16 1279.63 259.25 1282.91 260.295L1284.74 259.571C1283.66 254.679 1282.09 253.794 1283.19 249.883C1286.32 247.904 1284.77 248.1 1287.92 248.081L1289.48 249.869L1290.94 248.759L1290.02 246.909C1293.95 246.224 1307.17 247.69 1310.46 250.049C1311.52 250.809 1314.29 252.9 1315.66 253.824C1316.69 251.696 1316.25 252.777 1316.97 250.585C1323.83 249.326 1318.1 256.258 1330.24 250.323C1333.57 250.796 1337.39 252.934 1340.54 254.445C1341.7 251.471 1342.67 249.222 1344.02 246.336C1346.58 245.66 1347.86 245.37 1350.48 245.91L1349.03 249.868L1349.86 251.331L1352.84 251.737C1356.17 247.366 1350.55 242.736 1356.76 240.313C1357.63 242.412 1357.29 241.767 1357.03 244.377C1361.81 247.257 1369.01 241.238 1374.67 241.262L1376.56 245.047C1383.06 246.772 1385.8 245.578 1390.69 245.431C1392.7 245.371 1389.32 250.984 1398.91 248.198C1401.49 250.427 1402.61 251.968 1404.72 254.583L1403.89 258.699L1405.07 259.788C1413.27 255.644 1413.1 254.872 1421.05 261.914C1422.14 260.686 1423.23 259.469 1424.34 258.262C1429.46 258.076 1438.04 257.391 1442.64 258.494C1446.65 263.706 1444.32 272.439 1444.34 279.457L1446.08 279.643C1449.26 275.455 1446.01 275.021 1449.2 270.611L1450.98 270.826L1451.8 272.844C1447.75 279.334 1448.4 279.327 1449.34 286.776C1451.54 284.564 1451.68 282.065 1452.4 278.93L1453.35 278.968C1455.12 283.758 1454.44 284.607 1457.81 286.691C1461.2 286.531 1461 286.675 1463.75 284.712C1461.45 280.125 1460.08 284.915 1461.51 279.989C1463.99 281.09 1464.79 282.418 1466.53 284.488C1470.64 284.024 1469.2 280.798 1472.71 282.22C1472.94 284.983 1472.71 285.447 1473.67 287.89C1475.06 288.712 1475.94 289.197 1477.41 289.966L1476.97 285.04C1479.82 282.275 1481.49 284.13 1485.19 279.824C1485.46 278.283 1485.65 277.073 1486.03 275.551C1490.22 275.169 1490.03 275.102 1494.01 276.332L1494.53 277.677L1492 280.022L1492.28 283.146C1497.6 282.87 1501.19 279.008 1503.37 280.412C1502.97 283.883 1502.4 283.213 1503.56 285.608C1505.65 284.188 1505.84 283.815 1507.54 281.898C1510.83 282.503 1509.31 281.847 1512.01 284.403L1511.45 285.625C1505.84 287.495 1501.84 296.083 1500.5 301.581L1501.14 302.889L1503.64 300.786C1509.12 302.822 1504.06 309.245 1513.43 307.581C1516.07 307.112 1517.96 307.33 1520.41 308.262C1522.33 312.328 1522.8 315.39 1525.88 317.676C1528.47 316.873 1528.27 316.769 1529.98 314.59C1529.13 312.179 1528.48 310.19 1527.76 307.712L1529.06 306.363C1533.39 306.358 1531.65 305.675 1534.8 307.579C1534.91 311.028 1534.75 310.104 1532.66 313.609L1534.44 312.075L1537.27 315.441L1539.51 313.149L1540.51 314.907L1542.05 314.557L1543.09 312.521C1541.96 310.013 1542.37 310.904 1539.95 308.969L1539.93 307.949C1542.22 307.994 1541.45 307.86 1543.72 308.762C1544.7 306.643 1545.56 305.24 1546.93 303.347L1549.31 303.237C1551.44 306.016 1553.29 309.026 1556.31 310.619L1567.19 311.106C1568.67 313.99 1568.33 314.093 1568.62 317.441L1567.39 318.238L1566.16 317.798L1566.38 315.118C1563.67 315.668 1564.42 315.015 1562.73 316.522C1563.84 325.296 1571.33 319.862 1565.45 330.536L1565.85 330.216C1564.63 332.567 1563.4 334.307 1563.37 336.906L1564.37 337.465L1569.75 333.181L1570.97 333.581C1569.29 339.875 1564 337.582 1565.58 344.976C1571.55 343.437 1569.37 335.354 1576.65 337.747C1575.74 343.137 1572.6 341.851 1573.1 346.466C1576.42 346.652 1577.14 345.836 1579.96 344.068C1585.85 345.221 1583.95 348.846 1587.81 348.499L1590.5 345.151C1594.43 347.215 1597.08 358.276 1601.96 356.886L1602.18 356.377L1600.65 357.232L1602.63 355.452C1603.28 360.541 1600.93 363.558 1602.11 367.829L1603.92 368.37C1609.4 365.235 1611.45 365.279 1611.58 358.481C1613.09 361.641 1613.82 362.495 1613.56 366.021C1608 370.329 1607.51 364.483 1605.86 369.803L1607.27 375.735C1613.49 375.387 1612.17 369.906 1619.84 373.53L1619.55 374.794C1618.85 377.937 1618.09 379.472 1619.32 382.354L1620.91 382.817C1623.33 380.299 1625.1 378.725 1626.85 375.663C1625.54 372.299 1625.76 374.138 1627.39 369.873C1629.89 370.885 1628.72 370.226 1630.57 372.722C1630.35 375.525 1629.29 376.658 1627.77 379.021L1627.96 381.285L1631.02 380.901C1632.81 385.018 1627.71 400.096 1640.63 394.288L1641.35 392.535L1639.44 388.498L1639.72 387.717C1646.38 396.521 1642.98 397.2 1650.75 399.182C1650.16 400.931 1650.7 400.116 1648.78 401.361L1649.42 402.905C1651.52 403.043 1651.94 403.082 1654.02 402.834L1654.16 404.027C1651.94 406.613 1651.19 406.511 1651.16 409.12C1656.85 413.168 1665.75 418.254 1666.44 425.804C1669.02 426.971 1669.43 426.557 1672.35 426.177C1674.47 427.801 1674.82 427.71 1675.75 430.112C1675.46 433.189 1674.68 437.995 1675.53 440.71C1677.61 441.421 1676.54 441.423 1678.72 440.534C1679.49 437.914 1679.22 437.826 1678.69 435.073L1679.59 434.16L1681.49 435.354C1681.42 439.413 1679.96 449.301 1681.68 451.355L1686.62 452.046L1687.55 453.632L1684.7 455.34C1685.03 462.595 1690.06 456.104 1691.61 453.99L1693.37 454.292C1692.77 456.142 1693.02 455.472 1691.54 457.014C1693.2 460.699 1693.96 460.841 1698.26 460.796C1698.6 464.464 1698.67 469.718 1700.06 472.837C1701.37 471.698 1700.87 472.393 1701.53 470.733C1706.43 473.709 1702.58 477.583 1707.76 475.971C1709.56 475.412 1710.71 475.609 1712.48 476.107C1711.51 480.872 1708.48 483.058 1708.47 487.823L1709.49 488.305C1713.19 485.508 1714.32 483.725 1718.48 483.162L1720.41 484.95C1719.47 491.392 1712.58 489.74 1716.09 497.941L1717.15 498.7C1720.06 496.924 1720.57 494.044 1721.85 490.681L1723.06 489.858C1724.66 492.354 1723.49 495.619 1723.66 499.094C1726.02 501.829 1727.13 502.984 1729.77 505.437C1727.76 509.826 1726.79 510.222 1727.18 514.398C1730.49 519.834 1733.84 518.572 1736.03 524.6C1735.02 530.162 1732.91 534.004 1733.31 538.626L1734.83 536.019C1737.54 537.162 1739.55 540.106 1740.34 542.895L1740.48 542.517L1740.55 544.385L1742.01 543.489C1745.44 546.195 1742.76 547.191 1745.6 549.362C1746.95 541.774 1743.15 539.944 1748.47 535.721C1753.38 535.46 1753.11 535.32 1755.63 540.064L1755.1 541.142L1752.01 541.997C1750.99 544.148 1750.11 545.818 1748.72 547.747C1749.79 554.334 1751.18 547.836 1752.27 554.038L1750.61 555.759L1748.09 553.125C1747.23 555.76 1747.53 554.803 1748.06 557.895L1749.43 558.978C1752.68 557.036 1754.93 554.181 1756.95 554.638C1757.99 561.447 1747.16 565.696 1752.5 571.855C1755.4 572.529 1757.54 572.825 1760.15 574.292L1760.49 576.016C1757.54 576.179 1755.36 576.368 1752.42 576.721L1751.2 578.256L1751.66 581.849C1754.28 582.185 1753.31 582.155 1755.98 581.51L1758.04 583.002C1757.56 585.511 1757.18 585.559 1755.54 587.617C1756.8 592.489 1758.81 599.597 1761.5 603.665C1761.41 606.615 1761.88 605.272 1759.66 607.67L1757.5 608.349L1752.59 605.502C1750.33 608.609 1751.68 608.049 1748.9 608.645L1747.86 607.328L1749.65 592.732L1748.02 591.794L1745.56 592.62L1744.47 594.954C1746.93 599.955 1747.65 593.708 1747.93 598.668L1746.15 598.797L1745.12 600.276C1746.69 601.504 1745.9 600.946 1747.47 601.962C1747.21 605.644 1746.5 609.526 1747.97 612.77L1749.18 613.599L1750.42 610.422C1757.28 613.189 1760.65 610.709 1765.98 606.544C1768.54 608.462 1767.8 607.201 1768.74 610.038L1765.75 612.982C1765.97 615.529 1766.37 616.03 1767.36 618.432L1766 619.386C1764.35 618.208 1764.96 618.909 1764.07 617.399L1761.16 618.677C1758.5 617.042 1759.88 617.205 1757.07 617.535L1752.5 621.539L1751.02 621.235L1749.71 616.903C1747.27 618.018 1748.41 617.307 1746.76 620.309C1746.92 625.75 1751.98 627.496 1751.95 632.077C1750.3 632.418 1750.04 632.476 1748.33 632.623C1748.67 634.625 1749.01 636.146 1749.49 638.121C1747.83 640.726 1747.6 640.471 1744.65 641.715C1744.1 649.207 1743.65 656.709 1742.55 664.14C1744.17 669.198 1748.44 670.247 1746.16 674.063L1748.97 678.393L1748.08 679.895C1745.62 680.317 1746.28 680.384 1743.88 680.122L1743.6 678.243C1741.99 678.152 1741.78 677.092 1740.02 675.187L1739.17 675.73C1740.06 678.356 1739.96 677.643 1740.2 680.376L1738.42 682.092L1737.19 681.615L1737.45 678.439C1734.31 680.666 1735.94 680.261 1732.62 680.419C1731.36 679.051 1730.81 678.405 1729.67 676.879L1728.72 675.577L1726.12 675.825C1726.01 678.512 1726.93 678.534 1729.22 681.312L1726.97 683.222L1725.25 682.718L1723.62 684.184L1721.29 682.65L1720.28 683.02C1720.95 685.977 1722.74 688.824 1724.19 691.545L1723.51 693.178C1719.46 695.901 1713.56 699.27 1709.14 695.735C1708.69 690.617 1722.9 676.716 1717.29 671.345C1714.25 675.672 1717.47 673.408 1712.21 677.159L1710.86 676.767C1710.16 678.973 1711.18 684.517 1711.42 687.191L1709.5 689.289L1707.91 688.632C1706.58 685.533 1706.5 684.889 1704.34 682.233C1703.05 683.276 1701.74 684.297 1700.41 685.294C1698.23 681.652 1699.66 682.388 1696.65 681.622L1694.54 685.099L1692.78 683.552C1692.91 678.365 1694.87 678.354 1693.97 673.752C1691.4 673.894 1689.91 675.532 1687.78 677.18L1687.72 679.184L1685.91 680.02C1681.67 679.205 1683.38 680.136 1680.36 677.609L1680.57 675.567C1685.14 671.604 1684.67 676.484 1690.51 672.508C1688.99 670.548 1689.48 671.17 1687.26 669.765C1684.57 670.23 1684.74 670.296 1682.13 669.588L1682.62 668.353C1681.4 667.201 1681.16 667.104 1679.67 666.446L1680.1 664.924L1682.64 665.378L1684.55 662.471L1683.35 661.653L1680.59 662.56C1678.54 661.779 1679.59 662.108 1677.43 661.576C1676.92 665.681 1677.24 665.359 1673.65 667.619L1672.68 666.677C1672.85 664.426 1672.83 664.3 1672.49 662.063C1670.44 662.889 1671.13 662.749 1668.93 662.984C1668.56 660.346 1668.56 661.364 1669.3 658.699C1670.28 657.875 1671.24 657.022 1672.17 656.141C1674.82 653.59 1675.4 652.295 1675.43 648.656L1672.54 646.693L1671.23 647.409C1673.8 649.368 1673 648.089 1674.16 650.932C1673.12 653.706 1673.23 653.999 1671.32 656.181C1669.52 654.203 1669.9 654.123 1669.17 651.241L1668.93 650.248L1664.92 654.182C1662.24 650.055 1658.33 652.521 1657.79 650.666C1656.5 646.211 1656.08 636.528 1652.04 633.57L1650.99 633.988C1650.04 637.913 1649.47 638.698 1647.42 642.225L1645.74 641.538C1643.58 638.285 1643.42 634.497 1642.83 630.578C1639.08 629.022 1640.97 633.095 1635.06 631.2C1632.58 628.752 1631.7 622.444 1630.84 618.707C1627.28 619.429 1631.03 623.593 1628.42 626.488L1626.15 624.836L1624.28 625.102C1624.3 621.444 1625.26 621.253 1627.5 617.535C1627.65 612.533 1624.95 616.636 1623.42 611.019L1625.2 608.67C1621.69 598.454 1607.93 607.393 1601.03 602.563C1595.3 598.558 1597.21 594.202 1593.81 589.372C1591.58 590.996 1589.75 592.698 1587.1 593.262C1584.87 589.794 1585.8 590.047 1586.46 584.674L1585.05 587.868L1583.1 588.528C1578.25 586.553 1577.79 582.907 1573.44 581.297C1572.04 582.593 1571.62 583.261 1570.55 584.83C1565.81 580.903 1561.89 576.831 1556.01 575.606C1553.01 576.486 1553.29 577.115 1550.84 579.901L1549.6 579.606C1548.86 575.365 1551.91 576.719 1551.68 571.814C1547.82 568.17 1546.02 566.271 1541.51 563.351L1540.52 564.203L1540.59 572.09C1542.65 572.064 1544.48 571.938 1546.53 571.811L1547.49 573.131C1545.51 575.216 1543.56 575.407 1540.58 576.458L1540.41 578.442L1539.5 579.192C1537.04 576.951 1537.05 576.599 1533.72 575.99C1527.82 579.596 1535.24 576.914 1531.13 582.349C1527.88 582.639 1525.66 582.009 1524.4 578.928L1525.54 577.48C1518.56 577.047 1503.34 580.748 1499.21 579.343L1500.74 577.014C1495.12 574.949 1495.3 579.752 1488.67 573.874C1487.04 574.651 1486.23 574.963 1484.52 575.546C1481.56 571.264 1487.02 570.094 1482.3 563.081C1481.9 564.401 1481.51 565.576 1481.06 566.878C1478.05 567.84 1479.63 567.621 1476.08 566.871L1475.28 564.613C1476.7 561.785 1476.47 562.923 1476.66 559.866C1476.23 559.46 1474.13 557.395 1473.85 557.367C1468.04 556.783 1446.83 560.556 1441.43 561.198C1438.42 559.834 1439.29 560.931 1438.17 558.356C1440.31 556.376 1441.85 556.374 1444.74 555.752L1445.9 555.511L1446.58 554.435C1444.95 550.5 1444.99 549.878 1445.68 545.663L1445.24 545.463C1442.14 545.915 1442.23 546.725 1439.41 549.193C1437.96 547.522 1438.27 547.73 1436.52 546.405C1436.35 549.509 1436.86 550.198 1435.35 552.291C1432.73 550.624 1433.55 550.985 1432.46 546.971C1428.32 544.655 1418.45 548.211 1413.12 544.501C1410.67 545.511 1410.84 545.556 1409.06 547.589C1410.47 552.081 1410.17 551.274 1406.61 554.184C1407.71 555.915 1431.18 552.459 1437.07 557.052L1437.09 558.956C1435.32 561.235 1435.34 561.753 1432.75 562.763C1430.77 561.437 1431.02 561.572 1428.77 560.53C1426.63 562.761 1427.65 562.316 1424.99 563.124L1424.5 561.807L1422.57 561.523C1423.43 562.451 1423.67 563.036 1424.32 564.132L1423.08 565.52L1420.46 565.541L1419.53 564.619L1420.88 561.753C1409.61 558.19 1405.27 562.811 1401.04 561.845C1399.46 558.879 1400.7 556.155 1401.08 551.843C1397.57 546.626 1400.91 553.312 1394.59 550.67L1393.04 551.46C1389.7 552.416 1389.7 552.617 1386.14 552.023C1383.31 553.452 1383.12 553.265 1381.25 555.734C1384.85 556.576 1383.92 555.601 1385.42 557.782C1382.82 560.114 1384.29 559.618 1381.23 560.122C1374.72 556.862 1374.11 554.785 1369.06 551.681L1368.08 552.38C1367.79 555.366 1369.35 556.99 1371.02 559.622L1370.02 560.519L1367.47 559.533L1367.94 560.947L1366.77 564.761L1365.48 564.986L1364.81 563.967L1365.46 561.441C1364.27 560.575 1357.88 562.949 1357.59 558.296C1357.49 556.651 1355.67 553.881 1354.78 552.459C1356.74 551.781 1358.02 551.063 1359.76 549.957L1360.78 550.973L1360.76 556.581C1364.42 551.674 1365.34 546.739 1370.95 545.712C1373.54 547.482 1375.7 549.546 1376.59 552.706C1378.67 550.676 1378.18 550.321 1381.43 550.865L1381.47 549.497C1374.53 549.217 1375.78 547.448 1374.23 540.348L1372.69 539.351C1369.8 541.116 1369.56 541.462 1367.2 543.722C1361.77 543.882 1360.82 540.831 1356.27 541.866L1353.98 545.181L1352.4 544.897L1352.32 541.75L1350.02 542.286L1349.32 543.51C1352.51 545.836 1352.92 545.269 1353.76 548.272C1351.14 549.071 1351.96 548.869 1349.15 548.902L1348.03 550.984L1346.29 550.845C1346.46 548.011 1346.36 548.957 1347.5 546.206C1344.95 543.528 1335.27 545.887 1331.49 545.879C1329.48 545.875 1329.1 543.247 1325.5 544.491C1328 550.531 1329.96 546.384 1328.51 550.66L1326.56 551.866L1323.97 550.376C1318.11 553.496 1320.67 547.37 1312.4 556.805C1312.04 555.957 1310.53 550.779 1311.27 551.25C1308.66 549.585 1309.4 551.565 1308.62 548.035L1309.59 546.643C1311.78 547.204 1311.04 546.818 1312.67 548.44C1313.46 545.99 1313.58 547.143 1312.48 544.97C1314 542.514 1313 543.483 1315.93 542.447C1317.35 544.128 1316.81 543.12 1316.61 546.146L1318.66 546.121C1321.76 542.707 1321.48 544.059 1321.48 540.431L1322.1 542.184L1322.34 540.551C1317.33 540.276 1317.29 541.105 1313.98 538.652C1313.67 536.325 1313.6 536.443 1314.21 534.202L1312.44 532.375C1311.81 543.216 1310.43 534.769 1309.57 543.397L1306.08 540.107C1300.2 541.867 1290.37 538.126 1286.68 546.637C1289.88 545.924 1291.9 544.842 1295.07 545.18L1295.28 546.921L1296.6 546.551L1296.07 542.058L1297.27 540.851C1300.13 541.898 1300.6 543.198 1302.16 546.485C1302.64 547.54 1303.11 548.604 1303.57 549.674L1304.64 549.227L1305.72 545.046L1306.96 545.329C1308.53 550.422 1309.43 553.003 1310.03 558.408C1304.11 559.943 1306.14 556.901 1300.76 559.648L1300.17 561.335L1302.98 561.875L1302.78 563.261L1300.41 564.261C1299.14 562.807 1297.94 561.621 1296.4 560.45C1290.63 562.358 1272.15 566.061 1266.58 564.719C1266.44 562.236 1267.15 560.896 1267.97 558.511C1267.06 555.695 1264.91 555.773 1262.24 555.609C1261.65 556.605 1261.46 559.186 1261.84 558.902C1257.42 562.237 1253.41 569.468 1247.31 567.434L1246.69 566.088C1248.68 564.801 1250.5 563.63 1252.55 562.43L1252.38 561.548C1246.98 561.449 1246.31 563.354 1242.66 567.188L1241.11 567.1C1236.42 559.506 1245.16 561.968 1244.58 552.451C1240.98 553.327 1242.07 552.362 1240 554.554L1240.36 556.287L1238.44 558.307C1237.51 558.103 1236.58 557.898 1235.65 557.693L1233.95 559.016C1233.81 556.54 1234.11 556.07 1234.74 553.628L1232.39 553.787C1231.35 556.163 1231.56 555.481 1231.08 557.92C1227.87 560.32 1228.13 559.499 1223.93 558.859L1222.95 559.432C1225.5 561.652 1224.81 560.315 1225.33 563.449C1220.84 569.027 1218.69 565.804 1215.31 570.271C1216.33 574.734 1216.75 572.872 1215.09 576.228C1208.73 578.687 1206.55 571.924 1199.92 577.382C1197.6 575.994 1195.49 574.714 1193.21 573.212L1190.4 576.485L1189.19 576.16C1188.33 573.365 1189.16 574.312 1187.27 572.632C1181.57 575.511 1186.41 580.873 1182.49 586.09C1179.1 588.019 1173.95 589.824 1170.81 586.343C1171.37 582.839 1175.09 581.877 1169.31 578.397C1165.58 584.272 1168.06 589.228 1166 594.133C1162.16 596.333 1156.19 593.54 1153.96 597.54C1152.27 600.581 1151.86 601.07 1149.18 603.141L1148.57 602.434L1149.02 598.724C1147.21 598.921 1147.87 598.819 1146.18 599.892L1144.85 598.487C1146.55 597.541 1148.05 596.68 1149.7 595.656C1148.81 593.5 1149.12 594.487 1148.69 592.673L1149.89 591.415C1151.56 589.635 1150.92 590.379 1152.35 588.469L1150.31 588.761L1148.53 591.469L1147.38 591.593L1146.11 585.309L1144.65 585.728C1146.73 600.482 1135.35 605.592 1123 600.582C1115.57 602.414 1123.62 602.723 1116.31 604.724L1114.73 603.363C1114.6 600.052 1114.08 601.453 1115.6 598.861L1116.77 600.016L1115.12 599.304L1117.55 600.43C1119.45 594.222 1119.8 594.733 1125.89 591.876C1127.68 587.465 1128.09 582.868 1123.39 580.208C1120.14 581.796 1119.9 584.728 1119.12 588.15C1116.64 588.511 1116.05 588.137 1113.55 587.571L1111.1 589.021C1107.03 586.477 1108.7 575.881 1108.42 570.855L1105.7 569.603C1102.75 573.857 1108.29 573.746 1103.06 577.476L1100.09 577.744C1102.17 578.552 1101.1 578.282 1103.3 578.561C1104.04 589.588 1104.87 595.115 1103.05 606.235L1104.16 606.25L1103.15 606.426C1107.61 602.532 1104.8 600.341 1108.47 597.216C1111.3 597.778 1110.16 597.082 1111.93 599.461C1110.38 603.067 1107.98 603.666 1107.24 607.048C1108.79 609.296 1107.72 608.515 1110.34 609.654C1120.63 606.383 1119.56 602.034 1127.18 609.618L1128.88 610Z"/><path fill="#D0ADF2" transform="scale(0.5 0.5)" d="M916.261 362.032C913.449 359.899 913.009 359.296 909.457 358.725C912.699 366.029 912.943 370.601 906.395 376.112L905.669 375.091C907.19 372.756 907.828 372.135 908.526 369.43C906.743 368.327 905.527 367.488 903.835 366.248C902.041 359.216 909.138 357.603 903.958 351.172C900.443 353.67 900.876 353.168 896.941 351.702C897.786 348.911 901.316 349.504 901.683 348.63C903.044 345.386 903.93 339.209 907.242 337.341C908.405 339.627 909.151 340.769 909.742 343.265C907.397 343.913 907.556 343.409 906.288 344.762L908.571 346.901L910.863 346.09L912.118 342.983L913.181 343.163C912.918 346.619 912.617 345.429 913.689 348.475L915.642 348.413C923.206 341.721 916.433 339.582 913.187 335.017C908.374 328.248 915.671 314.452 924.612 313.002L925.715 313.828C924.579 316.949 923.473 318.878 924.075 322.1C928.954 326.135 924.328 321.288 930.293 321.363L931.159 325.303L932.801 325.588L935.513 323.469L939 324L938.733 326.123C934.743 328.691 936.646 325.128 932.126 329.522C932.116 333.074 931.444 331.728 933.309 334.053L936.134 332.967C937.67 335.323 934.497 337.959 934.932 343.508L936.463 344.462C938.673 343.699 940.871 342.903 943.057 342.074C947.066 343.457 946.286 343.809 949.434 347.853C953.113 344.818 950.292 338.717 955.449 335.727L957.751 337.256C957.994 344.44 955.826 337.043 954.692 342.86C957.557 344.421 957.809 344.367 960.041 346.885C959.967 350.06 960.582 348.802 958.868 351.019L956.697 347.697C949.661 348.217 948.683 351.875 947.335 358.029L944.983 357.595C940.257 353.662 941.857 349.56 940.236 347.204C940.134 349.426 940.141 351.236 940.179 353.462L938.327 354.181L937.452 353.166L938.753 350.427C934.432 350.906 929.896 354.658 926.851 351.026L927.284 349.479L930.646 350.565C931.5 345.356 932.403 342.919 929.727 338.745C922.578 341.043 924.428 350.243 914.594 354.013L914.225 355.634C916.713 355.841 917.305 355.918 919.72 356.524C919.486 359.006 918.2 359.672 916.261 362.032Z"/><path fill="#D0ADF2" transform="scale(0.5 0.5)" d="M870.992 335.524L879.398 335.772L880.939 340.253L883.54 340.754L884.438 341.981L886.224 341.823C886.388 343.383 880.992 351.115 879.47 355.562C881.099 359.285 879.812 357.901 883.592 359.735C884.388 357.645 884.746 356.701 885.172 354.545L885.484 352.914C888.43 353.238 888.725 353.073 891.396 351.791L892.976 352.549C894.537 352.194 893.815 352.105 895.156 352.686C893.867 356.898 884.503 365.626 880.025 365.791C880.296 360.659 881.277 358.412 876.614 355.779C872.886 355.648 871.753 355.35 868.271 356.826C867.767 358.369 867.246 359.906 866.708 361.437L865.091 359.819L860.779 360.844C860.021 362.351 859.697 363.108 859.059 364.73L858.459 366.288L854.777 364.306L854.862 363.343L856.929 362.398L857.131 361.303C854.39 359.648 854.005 359.554 851.688 357.212C852.115 354.513 852.562 355.005 855.382 352.714L851.756 353.442C851.43 350.076 846.315 346.066 843.707 343.845C840.817 343.632 840.874 343.448 838.235 342.111L838.591 339.781C841.393 336.874 839.789 337.536 843.247 337.077C848.583 340.219 848.157 345.286 853.326 349.615C861.211 347.417 856.654 340.523 870.992 335.524Z"/><path fill="#D0ADF2" transform="scale(0.5 0.5)" d="M1208.25 237.999C1214.02 238.945 1216.04 245.092 1214.6 250.337L1212.49 246.956C1209.46 247.413 1209.77 250.197 1208.67 250.723C1203.08 253.411 1192.84 254.223 1188.07 257.625L1188.32 259.702L1189.9 260.801L1192.29 259.368C1193.84 260.204 1194.7 260.781 1196.02 261.869C1201.97 257.917 1196.26 262.614 1203.93 259.879C1204.77 262.573 1204.68 261.156 1203.31 264.249L1201.84 262.7C1198.34 266.297 1194.19 264.665 1187.91 265.219L1186.46 266.146C1179.11 262.102 1181.85 263.317 1180.78 255.052C1178.32 252.835 1178.11 253.045 1177.36 249.912C1179.35 243.84 1177.26 250.801 1184.61 244.03L1185.89 244.574C1185.03 247.186 1185.1 246.177 1185.35 248.873C1188.11 250.262 1186.74 250.164 1189.61 249.299C1190.88 247.412 1191.04 247.093 1191.75 245.002L1192.32 243.279C1195.8 241.852 1194.99 242.392 1199.38 243.192C1200.51 246.422 1197.91 243.309 1196.5 249.056C1199.14 250.291 1202.74 249.68 1204.87 247.739C1203.55 245.056 1203.75 245.914 1203.22 243.05C1206.52 242.662 1205.47 243.368 1207.7 241.722L1208.25 237.999Z"/><path fill="#D0ADF2" transform="scale(0.5 0.5)" d="M1066.78 244.682L1068.62 246.362L1068.2 248.898C1071.63 251.911 1071.28 248.071 1076.15 252.948C1078.02 261.549 1072.21 260.767 1067.54 263.507L1065.97 264.447C1063.07 263.768 1064.44 264.358 1062.15 261.858C1063.3 259.528 1063.24 259.701 1063.22 257.094L1061.5 256.189L1060.52 257.362C1060.48 260.012 1060.34 261.738 1060.85 264.378L1063.21 265.207C1064.75 267.734 1064.53 267.638 1064.39 270.649L1062.67 270.512L1063.67 271.011C1059.68 268.265 1051.07 262.258 1052.71 257.126C1055.61 254.847 1056.99 254.916 1060.8 254.15L1062.15 253.888C1063.71 249.379 1064.09 248.622 1066.78 244.682Z"/><path fill="#D0ADF2" transform="scale(0.5 0.5)" d="M989.883 260.724L990.259 260.84L990.997 262.483C989.678 264.535 989.612 264.368 989.68 266.776C995.375 268.982 994.974 268.458 998.554 274.113C996.839 275.823 995.881 276.736 994.77 278.885C991.264 273.836 992.361 272.636 987.646 268.205C982.818 266.787 979.656 269.832 976.721 273.64C979.11 276.058 981.207 275.738 984.53 276.519C984.996 278.126 985.43 279.742 985.834 281.365C981.421 281.527 980.257 280.984 976.189 282.937C975.205 280.454 974.377 277.979 973.499 275.458C974.678 273.696 974.321 274.593 974.727 272.833C971.102 271.111 971.186 271.805 969.151 268.97L969.458 270.076L969.373 268.635C973.863 265.01 984.707 263.73 989.883 260.724Z"/><path fill="#D0ADF2" transform="scale(0.5 0.5)" d="M1085.15 264.134L1086.9 265.003C1087.08 269.433 1085.24 272.212 1086.69 273.713C1090.94 270.408 1091.99 268.837 1095.34 264.676C1097.15 267.194 1096.79 267.434 1097.37 270.666C1100.68 269.575 1105.31 259.594 1111.23 258.956C1111.72 262.171 1111.8 260.569 1110.58 263.898L1106.8 264.884L1106.4 266.584L1108.63 269.021L1105.6 268.878C1100.59 275.033 1100.11 273.18 1092.42 271.117C1090.46 273.472 1090.21 275.701 1089.45 278.699C1085.4 281.453 1085.22 277.617 1079.13 279.606C1078.59 276.715 1078.35 276.787 1079.55 274.178C1081.65 274.743 1082.12 275.27 1084.2 274.803C1082.6 268.578 1082.75 269.587 1085.15 264.134Z"/><path fill="#D0ADF2" transform="scale(0.5 0.5)" d="M1163.06 251.774L1164.22 255.882C1163.27 257.551 1162.9 258.079 1161.65 259.427C1164.31 261.739 1163.76 263.052 1166.66 264.26C1170.16 263.339 1172.71 260.745 1176.45 258.674L1176.85 259.91C1174.94 263.097 1173.22 268.096 1170.81 269.564L1169.04 268.699L1166.45 270.254L1165.58 270.11C1165.27 268.809 1165.13 267.638 1165.05 266.307L1162.74 265.219C1156.9 265.559 1156.33 269.424 1151.55 269.697C1151.85 265.22 1154.29 265.23 1155.15 261.175C1155.81 258.051 1155.66 256.783 1158.51 255.675C1160.2 256.328 1159.46 256.048 1161.62 255.735L1163.06 251.774Z"/><path fill="#D0ADF2" transform="scale(0.5 0.5)" d="M912.38 498.76C914.539 498.459 914.358 498.933 916.988 500.006L916.848 501.532C915.397 502.479 913.938 503.213 912.341 503.883C913.386 506.537 913.784 507.731 914.505 510.488L913.414 512.237C910.689 513.224 909.639 513.541 907.369 515.469L905.813 515.416C901.462 510.179 901.894 503.861 907.199 499.501C908.776 499.395 909.368 499.317 910.976 499.026L912.38 498.76Z"/><path fill="#D0ADF2" transform="scale(0.5 0.5)" d="M1146.91 223.578C1149.37 225.369 1149.08 224.785 1150.75 227.111C1150.96 230.17 1151.85 233.746 1148.36 234.758C1146.57 233.562 1146.11 233.235 1144.17 232.369L1144.25 234.499L1143.13 235.267C1138.81 233.893 1134.08 232.963 1133.03 228.092C1137.48 222.989 1140.79 225.471 1146.91 223.578Z"/><path fill="#D0ADF2" transform="scale(0.5 0.5)" d="M956.779 582.378L959.723 584.756C961.615 591.037 957.344 586.636 957.867 591.33C958.788 599.59 961.966 595.208 959.623 605.563C958.33 605.831 959.108 605.765 957.2 605.648L957.272 605.693L955.834 607.683L954.045 607.25C951.164 602.353 953.959 586.926 956.779 582.378Z"/><path fill="#D0ADF2" transform="scale(0.5 0.5)" d="M1223.09 241.507C1228.49 243.112 1231.51 242.083 1235.78 244.441L1236.14 246.525C1234.98 248.409 1233.6 249.701 1232.09 251.346C1230.95 251.516 1229.81 251.685 1228.68 251.854C1227.26 254.323 1227.22 254.123 1224.75 255.649C1218.3 253.695 1225 254.004 1218.37 251.461C1221.34 250.225 1221.75 250.087 1224.39 248.301C1223.01 244.909 1223.03 245.155 1223.09 241.507Z"/><path fill="#D0ADF2" transform="scale(0.5 0.5)" d="M831.772 350.576L833.62 352.32C834.636 355.915 836.07 360.486 834.562 363.799C832.816 360.893 833.963 361.616 831.466 360.341C828.843 363.529 827.681 365.246 823.935 365.907L822.685 363.43L821.468 362.933L818.59 364.124L817.365 363.114C818.258 357.99 816.403 358.938 818.675 355.138L820.685 355.055C825.015 357.7 825.45 358.735 829.574 358.045C832.126 354.856 831.31 355.449 831.772 350.576Z"/><path fill="#D0ADF2" transform="scale(0.5 0.5)" d="M1080.61 619.503C1085.92 619.609 1085.02 618.735 1088.13 621.444C1089.6 625.81 1089.84 623.92 1088.58 627.405C1083.69 629.151 1084.07 626.64 1080.03 628.064C1076.86 633.976 1080.85 629.302 1077.59 636.559L1075.52 636.258C1072.59 633.684 1073.42 635.224 1072.68 631.637C1076.37 627.045 1079.18 625.407 1080.61 619.503Z"/><path fill="#D0ADF2" transform="scale(0.5 0.5)" d="M1022.48 313.954L1023.98 315.999C1021.91 319.148 1021.11 319.888 1020.67 323.683L1021.42 324.491L1025.7 321.741C1025.94 323.78 1025.67 322.778 1026.55 324.737L1026.02 325.987L1020.77 327.445L1019.97 329.004L1020.97 329.974L1027.03 328.914C1026.73 332.142 1025.99 333.508 1023.75 335.364L1021.26 334.756C1008.04 322.362 1020.02 319.618 1022.48 313.954Z"/><path fill="#D0ADF2" transform="scale(0.5 0.5)" d="M1079.73 225.637C1082.7 227.856 1086.11 233.62 1087 236.812L1083.55 240.481L1081.65 239.197L1081.82 236.613L1080.06 236.426C1079.44 239.336 1078.84 239.262 1079.41 242.164C1077.21 237.893 1074.68 241.09 1073.77 235.527C1075.56 231.604 1077.11 230.574 1078.85 227.325L1079.73 225.637Z"/><path fill="#D0ADF2" transform="scale(0.5 0.5)" d="M1337.22 552.272C1342.37 555.498 1343.78 554.638 1349.08 556.523C1351.53 559.342 1350.82 558.136 1350.71 562.916L1349.6 563.478L1348.4 561.759C1342.54 558.448 1335.82 562.102 1333.04 557.08C1334.02 553.873 1333.92 554.766 1337.22 552.272Z"/><path fill="#D0ADF2" transform="scale(0.5 0.5)" d="M1003.07 357.471C1006.98 360.55 1002.01 358.61 1006.51 362.048L1008.48 360.92C1010.73 362.667 1009.75 361.969 1010.78 365.775L1009.09 366.434L1005 364.467L1003.64 365.009C1002.64 370.519 1003.37 370.637 1007.56 373.612L1007.5 375.056L1004.1 377.568C1002 371.547 1000.91 371.54 996.015 366.745C996.791 364.564 998.395 362.226 1000.68 361.717L1001.5 362.696L1000.19 366.305C1002.16 364.38 1002.47 360.488 1003.07 357.471Z"/><path fill="#D0ADF2" transform="scale(0.5 0.5)" d="M998.301 317.229C1003.36 318.529 1003.77 317.653 1005.96 320.865L1006.91 320.006L1005.74 319.13L1007.53 320.418C1005.39 322.867 1005.2 322.662 1004.91 325.825C1008.69 328.673 1009.1 329.138 1012.15 332.82C1008.64 334.08 1005.42 333.755 1001.8 333.277C999.904 331.013 1002.07 326.783 1001.58 320.69C999.528 319.262 999.666 319.34 998.301 317.229Z"/><path fill="#D0ADF2" transform="scale(0.5 0.5)" d="M1749.24 639.728L1750.56 640.15C1751.4 640.963 1752.25 641.777 1753.09 642.591C1753.48 644.948 1753.54 645.54 1753.42 647.859L1753.32 649.743L1753.59 647.582L1754.74 649.911L1753.44 652.134C1753.3 652.403 1753.41 654.589 1753.42 654.972L1752.56 655.781C1747.11 652.652 1746.92 652.318 1745.5 646.119C1746.38 642.511 1746.81 642.452 1749.24 639.728Z"/><path fill="#D0ADF2" transform="scale(0.5 0.5)" d="M936.836 593.453C940.487 594.699 940.581 594.108 942.797 596.583C938.912 600.115 939.138 599.435 938.836 603.499C940.096 605.692 940.4 606.127 941.354 608.455L938.907 608.408C939.794 610 939.225 609.393 940.5 610.33C938.322 612.88 939.632 612.027 936.444 613.004C932.729 608.268 934.589 598.535 936.836 593.453Z"/><path fill="#D0ADF2" transform="scale(0.5 0.5)" d="M1084.51 286.764C1086.98 289.582 1090.5 293.201 1093.95 294.093C1094.31 296.801 1093.09 301.332 1091.13 303.422C1088.69 302.627 1089.85 303.251 1088.12 300.112L1089.34 297.87C1087.2 299.813 1085.44 299.763 1083.07 298.854C1081.82 296.744 1082.03 297.554 1082.03 295.165L1083.95 295.759L1084.9 295.021C1084.28 291.146 1084.13 290.603 1084.51 286.764Z"/><path fill="#D0ADF2" transform="scale(0.5 0.5)" d="M1722.53 698.973C1723.3 700.095 1722.93 700.062 1722.9 701.996C1724.67 704.795 1724.86 704.898 1724.35 708.104L1722.4 709.118L1720.63 706.707C1719.05 708.935 1719.75 708.341 1717.42 709.549L1715.22 708.774C1713.76 705.309 1714.1 707.153 1714.83 702.973C1721.02 695.873 1715.67 703.238 1722.53 698.973Z"/><path fill="#D0ADF2" transform="scale(0.5 0.5)" d="M1746.62 686.497L1751.96 690.103C1749.12 696.795 1744.98 692.475 1749.55 700.522L1748.48 702.168C1746.93 700.875 1747.38 701.654 1746.92 699.957C1746.58 699.35 1741.94 692.562 1741.64 692.247L1741.89 691.452L1741.34 691.986L1740.08 691.06C1743.33 689.76 1744.8 689.551 1746.62 686.497Z"/><path fill="#D0ADF2" transform="scale(0.5 0.5)" d="M923.632 362.888L926.545 363.184L927.886 365.626L927.816 363.782L928.146 365.541C925.138 371.18 922.103 370.713 916.296 370.887C914.342 369.127 914.928 369.896 913.9 367.465L915.024 365.849C917.871 364.464 918.406 363.835 921.666 364.405L923.632 362.888Z"/><path fill="#D0ADF2" transform="scale(0.5 0.5)" d="M1090.33 611.562L1091.57 611.658C1093.99 614.12 1094.15 612.655 1096.32 615.72C1096.8 620.132 1097.34 618.312 1095.69 621.642L1093.96 620.68L1093.19 616.806C1090.93 616.998 1083.41 615.958 1080.97 615.566C1081.81 612.702 1081.26 614.051 1084.33 611.694C1086.47 611.96 1087.57 612.662 1089.45 613.681L1089.31 612.685L1090.33 611.562Z"/><path fill="#D0ADF2" transform="scale(0.5 0.5)" d="M1668.67 664.26C1669.7 664.894 1675.43 669.057 1676.1 669.745C1675.46 671.993 1675.81 671.054 1674.78 673.325L1674 674.977L1675.54 678.609L1673.8 678.445C1671.33 675.388 1672.25 677.144 1671.72 672.645C1670.12 672.626 1668.63 672.825 1667.06 673.115L1665.53 671.032C1666.51 667.309 1666.48 667.462 1668.67 664.26Z"/><path fill="#D0ADF2" transform="scale(0.5 0.5)" d="M1202.27 215.703C1203.24 215.391 1204.45 216.19 1205.55 216.677C1201.48 220.015 1198.98 222.778 1194.21 224.829L1192.85 219.377C1190.51 219.782 1191.48 220.017 1189.87 219.204C1191.9 216.046 1190.58 217.174 1193.9 215.613C1197.84 216.77 1198.38 216.967 1202.27 215.703Z"/><path fill="#D0ADF2" transform="scale(0.5 0.5)" d="M1393.04 551.46C1397.92 555.007 1397.17 553.618 1398.55 558.359L1397.9 559.796C1394.27 560.364 1395.96 560.588 1392.63 559.197C1388.25 560.511 1389.98 560.925 1386.95 559.358C1387.27 555.815 1390.32 553.774 1393.04 551.46Z"/><path fill="#D0ADF2" transform="scale(0.5 0.5)" d="M1057.22 292.492C1059.96 294.776 1059.76 296.62 1059.41 299.697C1056.44 304.228 1056.51 303.054 1052.07 305.971L1051 306.686L1048.77 306.014C1048.1 303.417 1048.25 304.089 1048.23 301.356L1049.39 300.598L1053.65 302.118L1054.79 300.919C1055.1 297.786 1056.15 295.447 1057.22 292.492Z"/><path fill="#D0ADF2" transform="scale(0.5 0.5)" d="M1175.25 215.436C1178.15 214.73 1181.58 214.632 1183.84 216.617C1182.87 219.738 1183.76 218.5 1180.99 220.392L1178.65 219.652L1177.24 221.127C1173.08 220.289 1172.06 221.256 1169.2 219.223C1171.2 216.274 1171.2 217.038 1175.25 215.436Z"/><path fill="#D0ADF2" transform="scale(0.5 0.5)" d="M939 324L940.365 320.489L939.807 319.593C938.326 317.181 937.504 316.248 937.099 313.423C940.566 314.909 941.783 315.701 945 317.748L945.97 318.072L946.865 316.845L948.062 318.025C945.787 320.742 945.345 321.806 944.063 325.133L942.129 325.871C941.367 325.393 939.752 324.301 939 324Z"/><path fill="#D0ADF2" transform="scale(0.5 0.5)" d="M1481.62 260.842C1484.01 260.607 1482.86 260.614 1485.06 260.771L1485.09 262.195C1490.13 266.148 1489.24 267.662 1488.53 273.237C1486.72 273.792 1487.69 273.732 1485.62 273.242L1486.66 270.128C1484.92 267.142 1483.2 267.048 1479.84 266.308C1479.67 262.983 1479.72 264.454 1481.62 260.842Z"/><path fill="#D0ADF2" transform="scale(0.5 0.5)" d="M1067.02 226.384L1068.19 225.995C1068.82 230.515 1068.86 233.245 1070.85 237.52L1069.88 239.957C1065.82 237.455 1064.63 238.515 1062.63 235.494C1063.27 232.111 1063.34 232.956 1066.17 229.98C1066.19 227.523 1065.93 228.728 1067.02 226.384Z"/><path fill="#D0ADF2" transform="scale(0.5 0.5)" d="M1069 295L1071.98 294.294C1074.29 289.02 1068.98 289.287 1072.95 287.631L1079.49 288.848C1079.44 291.15 1079.73 290.068 1078.61 292.093C1080.56 296.432 1080.46 294.342 1079.55 298.521C1077.28 296.839 1077.96 297.134 1076.46 294.312C1075.02 295.22 1073.55 296.095 1072.07 296.938C1070.46 296.119 1070.19 296.217 1069 295Z"/><path fill="#D0ADF2" transform="scale(0.5 0.5)" d="M1038.31 256.484C1042.13 258.511 1039.94 255.695 1043.09 259.788C1041.88 261.386 1040.46 262.711 1038.99 264.075C1038.45 268.846 1038.05 266.665 1040.16 270.882C1039.88 272.205 1040.16 271.472 1039.03 272.942C1035.97 270.497 1037.15 272.001 1035.7 268.014C1036.47 262.888 1038.57 260.948 1038.31 256.484Z"/><path fill="#D0ADF2" transform="scale(0.5 0.5)" d="M980.832 329.743C981.251 329.968 982.46 331.147 982.871 331.523C980.088 334.157 979.116 335.484 975.95 337.701L972.271 336.478L973.307 334.334L970.993 334.306L970.033 332.829C973.323 331.115 975.546 332.592 980.832 329.743Z"/><path fill="#D0ADF2" transform="scale(0.5 0.5)" d="M1130.07 261.089C1132.78 261.695 1134.67 261.748 1136.5 263.756L1135.5 265.971C1133.64 266.903 1132.89 267.546 1131.39 268.994L1132.17 264.653L1131.68 264.183L1131.07 264.577L1130.61 265.859C1129.47 269.146 1130.47 267.801 1127.14 269.728L1124.58 268.721L1126.05 270.246L1124.18 269.18L1123.97 269.515C1123.98 268.152 1128.88 262.602 1130.07 261.089Z"/><path fill="#D0ADF2" transform="scale(0.5 0.5)" d="M1035.43 329.642L1038.68 331.385C1039.93 334.546 1039.55 334.214 1037.99 337.607L1038.73 339.538L1037.71 340.646L1036.51 340.153C1034.01 336.425 1033.99 336.555 1032.77 332.29L1035.43 329.642Z"/><path fill="#D0ADF2" transform="scale(0.5 0.5)" d="M914.483 460.374C917.684 461.883 916.416 460.813 918.451 463.678C917.876 466.915 916.037 467.894 913.473 470.084C912.444 467.289 912.001 466.208 910.184 463.733C911.837 461.658 912.071 461.861 914.483 460.374Z"/><path fill="#D0ADF2" transform="scale(0.5 0.5)" d="M1089.98 220.616C1092.51 224.015 1092.5 223.789 1093.04 227.934C1091.28 231.412 1092.56 230.22 1089.29 231.859L1086.62 230.944C1086.35 226.609 1087.96 224.939 1089.98 220.616Z"/><path fill="#D0ADF2" transform="scale(0.5 0.5)" d="M938.181 613.888C939.745 614.705 939.193 614.417 940.335 616.025C940.864 619.537 941.238 620.304 939.838 623.616L937.474 623.777C933.038 620.431 934.291 617.156 938.181 613.888Z"/><path fill="#D0ADF2" transform="scale(0.5 0.5)" d="M1477.71 269.173L1478.74 269.229C1478.48 272.417 1478.5 274.769 1477.33 277.758L1476.1 277.097C1474.14 274.964 1473.75 274.442 1472.17 272.017L1472.58 270.332C1475.1 269.203 1474.94 269.275 1477.71 269.173Z"/><path fill="#D0ADF2" transform="scale(0.5 0.5)" d="M1042.25 273.966C1044.82 273.343 1044.98 273.016 1047.43 273.765C1047.91 275.985 1048.52 278.114 1049.26 280.264C1046.9 280.396 1045.75 280.268 1043.38 280.068C1041.37 277.847 1042.1 278.053 1042.25 273.966Z"/><path fill="#D0ADF2" transform="scale(0.5 0.5)" d="M1080.3 257.827L1082.73 256.204L1084.04 256.77C1083.64 261.806 1082.9 260.903 1085.15 264.134L1082.9 266.453C1078.9 265.193 1078.96 263.777 1079 259.454C1080 257.898 1079.42 258.273 1080.3 257.827Z"/><path fill="#D0ADF2" transform="scale(0.5 0.5)" d="M950.048 418.484L951.052 418.197C952.331 420.484 951.817 419.317 951.365 422.729C949.03 424.47 950.258 423.743 946.945 424.154C946.005 423.237 945.252 422.326 944.387 421.338L944.614 419.336L947.124 418.483L948.513 419.065L950.048 418.484Z"/><path fill="#D0ADF2" transform="scale(0.5 0.5)" d="M1506.53 270.436C1509.25 271.599 1508.27 271.059 1510.44 273.327C1510.39 276.935 1509.64 276.814 1507.39 280.457C1502.67 276.962 1504.35 274.496 1506.53 270.436Z"/><path fill="#D0ADF2" transform="scale(0.5 0.5)" d="M1321.51 552.154C1324.06 553.718 1325.42 555.908 1327.1 558.348L1328.16 558.351L1326.61 560.031C1325.55 560.477 1322.63 559.679 1321.5 559.389C1319.75 556.198 1320.43 556.889 1321.51 552.154Z"/><path fill="#D0ADF2" transform="scale(0.5 0.5)" d="M1787.75 590.405C1790.53 594.48 1790.12 597.215 1786.98 600.676L1784.43 600.478C1784.01 599.602 1783.51 598.037 1783.17 597.075C1786.29 595.069 1786.46 593.672 1787.75 590.405Z"/><path fill="#D0ADF2" transform="scale(0.5 0.5)" d="M911.346 311.199C913.677 312.183 912.789 311.696 914.506 313.983C913.814 318.206 912.392 314.596 909.817 322.667C907.965 322.781 908.881 322.955 907.095 322.015C907.104 317.558 908.663 317.972 910.658 312.966L911.346 311.199Z"/><path fill="#D0ADF2" transform="scale(0.5 0.5)" d="M1424.54 547.067C1427.83 547.293 1428.8 547.099 1431.56 548.959C1432.34 552.635 1432.45 550.737 1430.18 554.737L1427.91 554.174C1425.7 551.007 1424.42 550.28 1424.54 547.067Z"/><path fill="#D0ADF2" transform="scale(0.5 0.5)" d="M994.307 612.62C995.287 612.842 997.054 613.784 998.055 614.257L997.736 615.506C993.529 616.935 990.42 616.553 985.994 616.49C986.152 614.23 985.902 615.378 986.85 613.072C990.571 614.02 990.88 613.793 994.307 612.62Z"/><path fill="#D0ADF2" transform="scale(0.5 0.5)" d="M970.224 307.755L971.46 307.608C967.858 310.859 964.37 314.022 960.631 317.129L960.389 312.369C962.622 309.348 965.888 309.211 970.224 307.755Z"/><path fill="#D0ADF2" transform="scale(0.5 0.5)" d="M1037.85 233.14L1038.66 233.23C1038.43 234.466 1038.87 234.587 1039.63 236.216L1039.1 237.197C1037.4 236.912 1035.73 236.778 1034 236.736C1030.94 238.431 1030.56 239 1028.04 238.295C1030.16 234.391 1033.84 234.051 1037.85 233.14Z"/><path fill="#D0ADF2" transform="scale(0.5 0.5)" d="M1322.32 239.395L1323.75 239.338C1323.75 244.487 1325.23 244.012 1329.4 246.034L1329.67 247.51L1327.2 249.202L1326.57 249.229C1322.61 247.554 1320.61 243.176 1322.32 239.395Z"/><path fill="#D0ADF2" transform="scale(0.5 0.5)" d="M1710.3 704.791C1711.82 706.7 1711.74 706.543 1712.16 708.946L1710.71 710.626C1705.85 711.368 1708.14 711.612 1703.55 709.869L1703.07 709.478L1703.05 708.126C1708.71 706.472 1705.26 709.426 1710.3 704.791Z"/><path fill="#D0ADF2" transform="scale(0.5 0.5)" d="M1654.75 642.281C1656.56 644.889 1656.32 644.846 1656.62 648.073C1654.73 651.91 1656.07 650.328 1652.12 652.693C1652.23 649.867 1652.21 647.04 1652.22 644.211L1654.75 642.281Z"/><path fill="#D0ADF2" transform="scale(0.5 0.5)" d="M1761.15 557.394C1763.94 559.608 1763.08 558.247 1764.05 561.463C1763.33 565.01 1763.46 564.8 1761.39 567.746L1758.77 566.163C1758.97 563.052 1760.14 560.44 1761.15 557.394Z"/><path fill="#D0ADF2" transform="scale(0.5 0.5)" d="M1117.08 252.159L1119.18 253.276C1120.66 256.382 1121.58 258.061 1122.47 261.444L1120.23 261.207L1117.82 258.145L1114.58 258.432L1117.08 252.159Z"/><path fill="#D0ADF2" transform="scale(0.5 0.5)" d="M807.208 370.464C807.721 371.476 809.137 376.568 809.553 377.967L807.078 380.705L803.825 378.501L803.579 376.873C806.183 374.391 806.214 373.752 807.208 370.464Z"/><path fill="#D0ADF2" transform="scale(0.5 0.5)" d="M980.161 609.298C981.621 610.045 982.821 610.898 984.203 611.793C984.802 614.831 984.516 613.952 982.144 617.519C979.323 615.515 978.293 614.953 977.838 611.622L980.161 609.298Z"/><path fill="#D0ADF2" transform="scale(0.5 0.5)" d="M1053.16 231.898C1057.45 233.138 1057.96 233.199 1059.76 237.005L1058.63 239.622C1055.59 238.019 1052.07 236.601 1051.13 233.398L1053.16 231.898Z"/><path fill="#D0ADF2" transform="scale(0.5 0.5)" d="M1018.34 253.388L1019.63 253.45C1020.98 256.615 1020.12 258.572 1022.41 261.144L1021.29 263.528C1019.7 263.409 1019.21 263.177 1017.66 262.762C1016.81 259.84 1016.89 256.128 1018.34 253.388Z"/><path fill="#D0ADF2" transform="scale(0.5 0.5)" d="M1554.89 579.235C1557.29 580.841 1556.53 580.308 1558.38 582.728L1557.57 584.441C1555.49 585.412 1554.84 586.075 1553.23 587.707C1552.75 581.101 1551.68 583.408 1554.89 579.235Z"/><path fill="#D0ADF2" transform="scale(0.5 0.5)" d="M1633.7 340.957L1634.32 341.416L1633.95 342.851C1627.8 349.075 1631.93 344.981 1631.08 351.088L1630.36 351.619L1629.27 351.454C1627.7 344.576 1628.16 344.277 1633.7 340.957Z"/><path fill="#D0ADF2" transform="scale(0.5 0.5)" d="M975.448 362.66C975.773 363.329 976.099 363.997 976.424 364.666C974.137 367.668 972.115 370.662 969.188 373.045L967.731 372.069C969.792 368.122 972.364 365.874 975.448 362.66Z"/><path fill="#D0ADF2" transform="scale(0.5 0.5)" d="M1222.87 233.052L1223.36 233.024L1224.4 234.007C1223.56 238.239 1222.15 239.001 1218.76 241.009C1218.02 238.29 1217.79 238.282 1218.29 235.575C1219.89 234.833 1221.38 234.004 1222.87 233.052Z"/><path fill="#D0ADF2" transform="scale(0.5 0.5)" d="M1128.88 610C1131.51 606.501 1129.9 607.569 1133.47 606.092C1135.17 607.485 1134.66 606.764 1135.34 607.966L1135.35 611.062L1134.02 612.349C1131.23 611.566 1131.32 611.572 1128.88 610Z"/><path fill="#D0ADF2" transform="scale(0.5 0.5)" d="M1146 250.602C1149.69 251.275 1150.43 251.261 1153.83 253.119L1153.44 254.416L1151.04 254.79L1149.76 254.425L1146.79 256.208L1145.98 254.608L1147.25 255.609C1145.16 252.973 1145.78 254.515 1146 250.602Z"/><path fill="#D0ADF2" transform="scale(0.5 0.5)" d="M1069.09 619.508C1071.15 620.546 1070.77 620.461 1072.54 622.072C1072.32 625.844 1070.98 625.999 1067.77 629.675C1067.3 627.745 1068.66 621.922 1069.09 619.508Z"/><path fill="#D0ADF2" transform="scale(0.5 0.5)" d="M898.998 355.76L899.575 355.896L900.274 357.585C899.469 360.393 898.329 360.98 896.109 362.892L893.95 359.319L894.534 357.443L898.998 355.76Z"/><path fill="#D0ADF2" transform="scale(0.5 0.5)" d="M1189.92 269.601L1192.73 270.38L1193.42 272.421L1193.09 272.965L1193.29 271.218C1192.8 272.605 1192.35 273.39 1192.31 274.881C1191.41 274.767 1190.5 274.654 1189.59 274.54C1188.93 275.995 1188.3 277.033 1187.51 278.422L1186.5 278.076C1186.86 273.433 1186.9 273.296 1189.92 269.601Z"/><path fill="#D0ADF2" transform="scale(0.5 0.5)" d="M1006.95 292.979L1008.31 293.554L1008.91 295.472C1007.26 297.694 1005.58 299.9 1003.89 302.088L1002.27 299.667C1002.35 294.621 1004.85 298.969 1006.95 292.979Z"/><path fill="#D0ADF2" transform="scale(0.5 0.5)" d="M1746.62 686.497C1745.51 686.501 1746.16 686.446 1744.52 686.903L1743.1 687.307L1740.98 685.576L1740.81 683.014C1742.17 681.241 1742.06 681.54 1743.88 680.122C1744.77 682.256 1745.68 684.38 1746.62 686.497Z"/><path fill="#D0ADF2" transform="scale(0.5 0.5)" d="M946.346 594.531C947.644 595.674 947.596 595.968 948.539 597.512C948.022 601.612 948.268 600.263 945.376 603.939L943.613 601.796C943.175 598.181 943.921 598.543 946.346 594.531Z"/><path fill="#D0ADF2" transform="scale(0.5 0.5)" d="M913.686 562.755L915.651 562.537C917.219 565.17 916.775 567.403 916.702 570.54L914.647 570.092C913.381 566.585 913.588 566.375 913.686 562.755Z"/><path fill="#D0ADF2" transform="scale(0.5 0.5)" d="M1258.74 249.239C1262.76 250.746 1261.79 249.501 1263.52 252.245L1262.8 254.689L1262.38 254.023C1260.75 254.156 1261.53 254.018 1259.61 254.579L1258.11 255.032L1257.35 253.972L1258.74 249.239Z"/><path fill="#D0ADF2" transform="scale(0.5 0.5)" d="M1612.99 329.173C1615.46 330.137 1614.62 329.277 1615.87 331.456C1615.33 334.607 1615.07 334.487 1613.03 337.058C1612.37 337.025 1612.88 337.159 1611.16 335.764C1611.04 331.306 1610.64 333.468 1612.99 329.173Z"/><path fill="#D0ADF2" transform="scale(0.5 0.5)" d="M855.26 337.439C857.425 339.581 856.719 338.291 857.103 341.605C854.987 344.892 856.412 343.945 852.876 344.816C852.113 342.346 851.986 343.536 852.862 341.174L853.176 341.576L854.001 340.342C853.833 338.489 853.739 339.45 855.26 337.439Z"/><path fill="#D0ADF2" transform="scale(0.5 0.5)" d="M1684.36 680.996L1687 682.808C1687.9 686.101 1688.36 686.878 1690.14 689.635C1686.43 689.688 1687.78 690.397 1685.55 688.303C1685.24 685.21 1685 683.948 1684.36 680.996Z"/><path fill="#D0ADF2" transform="scale(0.5 0.5)" d="M1330.32 235.092C1332.58 235.975 1334.76 236.99 1335.71 239.162L1334.37 238.195C1331.65 239.462 1331.39 239.625 1328.49 240.28C1327.97 237.942 1328.72 237.881 1330.32 235.092Z"/><path fill="#D0ADF2" transform="scale(0.5 0.5)" d="M921.719 565.718C926.857 569.105 926.027 566.307 928.139 572.087C926.642 572.533 926.744 572.396 925.145 572.433C922.167 569.522 923.063 570.245 921.719 565.718Z"/><path fill="#D0ADF2" transform="scale(0.5 0.5)" d="M1029.66 305.89C1029.88 307.304 1030.77 308.856 1031.36 310.696L1027.97 314.133C1026.18 312.044 1026.62 312.956 1025.81 310.419L1029.66 305.89Z"/><path fill="#D0ADF2" transform="scale(0.5 0.5)" d="M1031.65 318.303L1032.23 318.169C1034.72 319.894 1036.67 319.775 1038.92 321.491L1037.85 322.782C1034.59 322.497 1033.95 322.803 1031.52 320.664L1031.65 318.303Z"/><path fill="#D0ADF2" transform="scale(0.5 0.5)" d="M820.315 346.787C821.781 345.862 820.912 346.11 823.002 346.437C824.442 349.19 824.275 347.79 823.588 350.768L822.031 349.517C819.241 349.96 818.813 350.252 816.097 349.726C817.733 348.669 818.762 347.931 820.315 346.787Z"/><path fill="#D0ADF2" transform="scale(0.5 0.5)" d="M925.361 560.092C927.295 560.098 926.38 559.813 928.047 561.114C926.761 563.336 924.763 564.131 922.384 565.677C921.665 563.941 921.689 563.779 921.26 561.943C923.205 561.521 923.787 561.31 925.361 560.092Z"/><path fill="#D0ADF2" transform="scale(0.5 0.5)" d="M1101.17 284.067C1105.47 283.291 1104.33 282.875 1107.88 284.262L1108.2 286.447L1106.63 286.538C1101.26 282.707 1106.18 287.531 1101.32 286.974L1101.17 284.067Z"/><path fill="#D0ADF2" transform="scale(0.5 0.5)" d="M1008.6 623.236C1012.42 625.6 1011.9 628.623 1012.17 632.782C1007.04 628.7 1007.78 628.951 1008.6 623.236Z"/><path fill="#D0ADF2" transform="scale(0.5 0.5)" d="M1018.12 346.544C1020.33 346.625 1020.38 346.645 1022.5 347.007L1023.05 348.387L1021.12 350.632C1018.82 350.327 1018.41 350.069 1016.22 349.226L1016.06 347.639L1018.12 346.544Z"/><path fill="#D0ADF2" transform="scale(0.5 0.5)" d="M928.681 601.263C932.846 603.868 931.42 607.952 929.985 611.566C924.818 606.88 930.702 610.421 928.681 601.263Z"/><path fill="#D0ADF2" transform="scale(0.5 0.5)" d="M971.83 311.385C972.919 311.936 972.277 311.465 973.002 313.468L968.766 319.786C968.207 317.142 969.14 315.152 969.851 312.279L971.83 311.385Z"/><path fill="#D0ADF2" transform="scale(0.5 0.5)" d="M1064.85 283.56C1067.38 285.965 1066.81 286.488 1067.92 290.478L1067.19 291.34C1066.38 291.522 1065.49 291.454 1064.62 291.46C1064.09 287.987 1063.63 286.891 1064.85 283.56Z"/><path fill="#D0ADF2" transform="scale(0.5 0.5)" d="M1159.56 216.607C1160.89 216.02 1162.44 216.581 1163.09 217.883C1163.74 219.184 1163.26 220.766 1161.99 221.476C1161.11 221.966 1160.04 221.934 1159.19 221.394C1158.34 220.853 1157.86 219.891 1157.94 218.89C1158.02 217.89 1158.64 217.012 1159.56 216.607Z"/><path fill="#D0ADF2" transform="scale(0.5 0.5)" d="M1514.28 285.385C1516.96 287.541 1517.01 292.791 1517.54 296.575C1512.48 291.521 1513.73 292.525 1514.28 285.385Z"/><path fill="#D0ADF2" transform="scale(0.5 0.5)" d="M1063.03 297.357C1064.28 293.781 1063.15 294.945 1066.14 293.396C1068.08 294.156 1068.2 293.766 1069 295L1066.77 296.186L1065.99 299.855C1063.56 298.882 1064.63 299.575 1063.03 297.357Z"/><path fill="#D0ADF2" transform="scale(0.5 0.5)" d="M1737.77 535.04C1739.55 535.584 1740.38 535.718 1742.2 536.069L1742.86 535.805L1743.12 537.724C1742.31 539.032 1742.9 538.34 1741.02 539.468C1738.22 537.689 1739.49 538.67 1737.77 535.04Z"/><path fill="#D0ADF2" transform="scale(0.5 0.5)" d="M991.808 620.759C992.489 619.974 993.563 619.655 994.562 619.941C995.561 620.227 996.303 621.067 996.465 622.093C996.627 623.12 996.179 624.147 995.316 624.726C994.205 625.473 992.712 625.281 991.825 624.278C990.938 623.275 990.931 621.77 991.808 620.759Z"/><path fill="#D0ADF2" transform="scale(0.5 0.5)" d="M930.763 374.499L932.95 376.188C932.802 377.98 932.847 379.704 932.98 381.496L930.44 380.946C928.908 378.141 929.527 378.773 930.763 374.499Z"/><path fill="#D0ADF2" transform="scale(0.5 0.5)" d="M951.778 282.172C952.693 285.246 953.29 285.235 952.384 287.617L949.933 286.788L947.65 286.598C949.038 285.133 950.413 283.658 951.778 282.172Z"/><path fill="#D0ADF2" transform="scale(0.5 0.5)" d="M1567.34 584.741L1571.42 586.285L1571.95 587.607L1569.77 589.307L1565.11 588.131L1564.71 586.815L1567.34 584.741Z"/><path fill="#D0ADF2" transform="scale(0.5 0.5)" d="M1334.44 227.57C1336.45 229.361 1335.18 231.987 1333.77 233.7C1332.91 233.793 1331.52 233.705 1330.6 233.683L1330.48 232.157L1334.44 227.57Z"/><path fill="#D0ADF2" transform="scale(0.5 0.5)" d="M994.277 351.661C995.463 353.982 995.198 352.799 995.227 355.168C993.229 356.155 991.22 357.117 989.199 358.056L988.904 356.579C990.575 354.65 992.331 353.296 994.277 351.661Z"/><path fill="#D0ADF2" transform="scale(0.5 0.5)" d="M1165.86 276.628L1167.96 277.406C1169.13 279.934 1168 280.921 1166.83 284.516L1165.36 283.152C1165.48 280.974 1165.64 278.799 1165.86 276.628Z"/><path fill="#D0ADF2" transform="scale(0.5 0.5)" d="M1033.95 254.091L1034.9 255.122C1034.31 258.052 1033.75 257.583 1030.69 259.999L1029.46 258.524L1029.67 256.801L1033.95 254.091Z"/><path fill="#D0ADF2" transform="scale(0.5 0.5)" d="M1260.31 260.044L1262.52 260.713C1260.94 263.002 1261.92 262.114 1259.31 263.106L1257.21 260.265L1257.77 259.275L1260.31 260.044Z"/><path fill="#D0ADF2" transform="scale(0.5 0.5)" d="M1615.77 360.064L1617.12 361.264C1619.41 360.412 1618.71 360.27 1620.81 360.574L1620.23 362.352L1616.32 364.722L1615.35 363.727L1615.77 360.064Z"/><path fill="#D0ADF2" transform="scale(0.5 0.5)" d="M984.843 314.334L986.781 313.095L988.052 313.935L988.151 320.052C987.08 318.802 985.111 317.003 983.873 315.792L984.843 314.334Z"/><path fill="#D0ADF2" transform="scale(0.5 0.5)" d="M1123.57 225.314C1126.58 227.795 1126.04 226.389 1126.8 229.343L1125.04 231.092C1122.99 231.023 1123.95 231.338 1122.21 230.047L1123.57 225.314Z"/><path fill="#D0ADF2" transform="scale(0.5 0.5)" d="M1222.1 223.554C1224.21 225.709 1224.16 226.203 1223.73 228.694L1221.56 229.129L1219.91 229.466L1222.1 223.554Z"/><path fill="#D0ADF2" transform="scale(0.5 0.5)" d="M1452.24 249.658L1455.61 250.913C1457.26 253.582 1456.65 252.145 1456.7 255.634C1453.97 252.3 1455.63 253.558 1451.3 252.028L1452.24 249.658Z"/><path fill="#D0ADF2" transform="scale(0.5 0.5)" d="M1306.9 236.826C1310.72 236.931 1310.56 236.354 1313.42 238.026L1312.94 240.015C1311.3 241.375 1312.22 241 1310.25 241.254L1306.9 236.826Z"/><path fill="#D0ADF2" transform="scale(0.5 0.5)" d="M1343.58 227.697C1345.57 227.475 1344.58 227.343 1346.54 228.189L1345.13 232.163C1341.65 230.134 1342.07 231.316 1341.21 228.718L1343.58 227.697Z"/><path fill="#D0ADF2" transform="scale(0.5 0.5)" d="M1097.87 256.557C1101.32 259.657 1100.59 260.617 1100.09 264.571L1098.76 264.674C1096.99 261.375 1097.72 260.965 1097.87 256.557Z"/><path fill="#D0ADF2" transform="scale(0.5 0.5)" d="M1624.48 340.914C1625.32 343.286 1625.13 342.08 1624.61 344.599L1622.2 345.183L1620.66 344.16C1621.92 343.062 1623.2 341.98 1624.48 340.914Z"/><path fill="#D0ADF2" transform="scale(0.5 0.5)" d="M1333.13 244.555C1336.61 245.035 1338.07 245.623 1339.67 248.831C1337.42 249.598 1338.57 249.473 1336.24 249.231L1333.13 244.555Z"/><path fill="#D0ADF2" transform="scale(0.5 0.5)" d="M941.989 298.299L947.417 299.105L945.807 300.918C945.33 302.359 945.731 301.686 944.485 302.862L941.989 298.299Z"/><path fill="#D0ADF2" transform="scale(0.5 0.5)" d="M1044.82 300.565C1046.53 302.023 1045.96 301.392 1046.99 303.466L1045.85 305.48C1044.65 305.842 1045.29 305.853 1043.94 305.14L1044.82 300.565Z"/><path fill="#D0ADF2" transform="scale(0.5 0.5)" d="M1191.36 226.125L1193.92 229.553L1193.38 230.865L1191.52 231.53L1190.32 230.753L1191.36 226.125Z"/></svg>