<svg width="680" height="114" viewBox="0 0 680 114" fill="none" xmlns="http://www.w3.org/2000/svg">
<path d="M193.632 0C198.692 0 201.226 6.12717 197.646 9.70874L125.425 81.9673C123.295 84.0982 120.408 85.2952 117.397 85.2952H74.3006C68.0277 85.2952 62.9425 90.3869 62.9425 96.6679V107.706C62.9425 110.846 60.3999 113.392 57.2635 113.392H36.0879C33.0755 113.392 30.1866 112.194 28.0565 110.061L3.32669 85.2994C1.19664 83.1666 0 80.274 0 77.2577V28.6823C0 23.6163 6.1171 21.0792 9.69469 24.6614L54.712 69.7365C59.1476 74.1778 66.3391 74.1778 70.7747 69.7365L137.095 3.33097C139.225 1.19818 142.114 0 145.126 0H193.632Z" fill="#5C6CFE"/>
<path d="M671.474 97.834C666.008 97.834 661.49 97.1417 657.919 95.7571C654.421 94.2996 651.798 91.8947 650.049 88.5425C648.3 85.1175 647.425 80.5264 647.425 74.7693L647.535 20.9883H661.745L661.636 75.7531C661.636 78.6681 662.401 80.9272 663.931 82.5304C665.534 84.0608 667.793 84.826 670.708 84.826H680V97.834H671.474ZM638.024 48.8626V37.7129H680V48.8626H638.024Z" fill="white"/>
<path d="M604.398 97.07V36.293C604.398 29.5158 606.256 24.5239 609.973 21.3174C613.762 18.0381 619.337 16.3984 626.697 16.3984H634.131V28.0947H625.604C623.345 28.0947 621.596 28.7142 620.357 29.953C619.191 31.119 618.608 32.7951 618.608 34.9813V97.07H604.398ZM596.965 49.8476V38.6979H635.114V49.8476H596.965Z" fill="white"/>
<path d="M574.677 97.0703V79.4712H572.163V59.9045C572.163 56.4794 571.325 53.9288 569.649 52.2527C567.973 50.5766 565.386 49.7385 561.888 49.7385C560.066 49.7385 557.88 49.775 555.329 49.8479C552.779 49.9207 550.192 50.03 547.568 50.1758C545.018 50.2487 542.722 50.358 540.682 50.5037V37.605C542.358 37.4593 544.252 37.3135 546.366 37.1678C548.479 37.022 550.629 36.9492 552.815 36.9492C555.074 36.8763 557.188 36.8398 559.155 36.8398C565.277 36.8398 570.341 37.6415 574.349 39.2447C578.43 40.8479 581.491 43.3621 583.532 46.7872C585.645 50.2122 586.702 54.694 586.702 60.2324V97.0703H574.677ZM555.548 98.6006C551.248 98.6006 547.459 97.8354 544.18 96.3051C540.973 94.7747 538.459 92.5885 536.637 89.7464C534.888 86.9043 534.014 83.4792 534.014 79.4712C534.014 75.0987 535.07 71.5279 537.184 68.7587C539.37 65.9895 542.394 63.9126 546.257 62.5279C550.192 61.1433 554.783 60.451 560.03 60.451H573.803V69.5239H559.811C556.313 69.5239 553.617 70.3983 551.722 72.1473C549.9 73.8234 548.989 76.0096 548.989 78.706C548.989 81.4023 549.9 83.5886 551.722 85.2647C553.617 86.9408 556.313 87.7788 559.811 87.7788C561.924 87.7788 563.856 87.4144 565.605 86.6857C567.426 85.8841 568.92 84.5724 570.086 82.7505C571.325 80.8558 572.017 78.3052 572.163 75.0987L575.88 79.3619C575.515 83.5157 574.495 87.0136 572.819 89.8557C571.216 92.6978 568.957 94.884 566.042 96.4144C563.2 97.8719 559.702 98.6006 555.548 98.6006Z" fill="white"/>
<path d="M493.452 97.0703V37.7144H505.476V62.8559H505.148C505.148 54.3297 506.97 47.8803 510.614 43.5079C514.258 39.1354 519.614 36.9492 526.683 36.9492H528.869V50.1759H524.715C519.614 50.1759 515.642 51.5605 512.8 54.3297C510.031 57.026 508.646 60.9612 508.646 66.1353V97.0703H493.452Z" fill="white"/>
<path d="M443.298 99.1461C436.083 99.1461 429.889 97.8708 424.715 95.3202C419.541 92.7696 415.314 89.4538 412.035 85.3729C408.828 81.292 406.46 76.8466 404.929 72.0369C403.399 67.2273 402.634 62.5998 402.634 58.1544V55.7496C402.634 50.7942 403.399 45.9116 404.929 41.1019C406.533 36.2922 408.974 31.9198 412.253 27.9846C415.532 24.0494 419.686 20.9158 424.715 18.5838C429.816 16.179 435.828 14.9766 442.751 14.9766C449.965 14.9766 456.233 16.2883 461.552 18.9118C466.945 21.4624 471.245 25.1061 474.451 29.8429C477.658 34.5068 479.589 39.9724 480.245 46.2395H464.613C464.03 42.5958 462.718 39.5351 460.678 37.0574C458.71 34.5068 456.196 32.6121 453.136 31.3732C450.075 30.0615 446.613 29.4056 442.751 29.4056C438.816 29.4056 435.318 30.0979 432.257 31.4825C429.196 32.7943 426.646 34.689 424.605 37.1667C422.565 39.6444 420.998 42.5594 419.905 45.9116C418.885 49.2638 418.375 52.9804 418.375 57.0613C418.375 60.9965 418.885 64.6402 419.905 67.9924C420.998 71.3446 422.601 74.2961 424.715 76.8466C426.828 79.3244 429.415 81.2555 432.476 82.6401C435.609 84.0247 439.217 84.717 443.298 84.717C449.273 84.717 454.301 83.2595 458.382 80.3446C462.536 77.3567 465.05 73.2029 465.925 67.8831H481.556C480.828 73.5673 478.896 78.7778 475.763 83.5146C472.629 88.2514 468.33 92.0409 462.864 94.883C457.399 97.7251 450.876 99.1461 443.298 99.1461Z" fill="white"/>
<path d="M373.591 97.0705V17.2734H388.786V97.0705H373.591ZM366.158 28.6418V17.2734H388.786V28.6418H366.158Z" fill="white"/>
<path d="M340.286 97.0705V17.2734H355.48V97.0705H340.286ZM332.853 28.6418V17.2734H355.48V28.6418H332.853Z" fill="white"/>
<path d="M306.815 97.0707V37.7148H322.01V97.0707H306.815ZM298.508 49.0832V37.7148H322.01V49.0832H298.508Z" fill="white"/>
<path d="M242.925 97.6167V85.1553H262.929C266.573 85.1553 269.342 84.1715 271.237 82.2039C273.131 80.1634 274.079 77.3942 274.079 73.8962C274.079 70.3983 273.131 67.702 271.237 65.8072C269.342 63.8396 266.573 62.8558 262.929 62.8558H242.925V53.3458H261.836C267.156 53.3458 271.892 54.0016 276.046 55.3134C280.273 56.5522 283.552 58.6656 285.884 61.6534C288.289 64.6412 289.492 68.6493 289.492 73.6776V75.208C289.492 79.9448 288.435 83.9893 286.321 87.3415C284.281 90.6208 281.184 93.1714 277.03 94.9933C272.949 96.7423 267.884 97.6167 261.836 97.6167H242.925ZM229.917 97.6167V16.7266H245.111V97.6167H229.917ZM242.925 60.3417V50.8316H259.978C263.694 50.8316 266.427 49.8478 268.176 47.8802C269.925 45.9126 270.799 43.2892 270.799 40.0098C270.799 36.7305 269.925 34.107 268.176 32.1394C266.427 30.1718 263.694 29.188 259.978 29.188H242.925V16.7266H258.556C267.593 16.7266 274.443 18.6213 279.107 22.4107C283.844 26.2002 286.212 31.6293 286.212 38.6981V40.2284C286.212 45.1839 285.01 49.1555 282.605 52.1433C280.273 55.0583 277.03 57.1717 272.876 58.4834C268.722 59.7222 263.949 60.3417 258.556 60.3417H242.925Z" fill="white"/>
<path d="M322.368 30.0468H306.514V17.6445H322.368V30.0468Z" fill="white"/>
</svg>
